<svg xmlns="http://www.w3.org/2000/svg" width="12" height="12" viewBox="0 0 12 12" fill="none">
<g clip-path="url(#clip0_6325_35099)">
<path d="M5.98438 10.9688C8.73717 10.9688 10.9688 8.73717 10.9688 5.98438C10.9688 3.23158 8.73717 1 5.98438 1C3.23158 1 1 3.23158 1 5.98438C1 8.73717 3.23158 10.9688 5.98438 10.9688Z" stroke="#666666" stroke-width="1.2" stroke-miterlimit="10" stroke-linecap="square"/>
<path d="M5.98438 3.40625C6.0793 3.40625 6.15625 3.3293 6.15625 3.23438C6.15625 3.13945 6.0793 3.0625 5.98438 3.0625C5.88945 3.0625 5.8125 3.13945 5.8125 3.23438C5.8125 3.3293 5.88945 3.40625 5.98438 3.40625Z" fill="#666666" stroke="#666666" stroke-width="1.2" stroke-miterlimit="10" stroke-linecap="square"/>
<path d="M6 6L5.98438 8.73437" stroke="#666666" stroke-width="1.2" stroke-miterlimit="10" stroke-linecap="square"/>
</g>
<defs>
<clipPath id="clip0_6325_35099">
<rect width="12" height="12" fill="white"/>
</clipPath>
</defs>
</svg>